<?xml version="1.0" encoding="UTF-8"?>
<svg id="Layer_1" xmlns="http://www.w3.org/2000/svg" version="1.1" viewBox="0 0 130.27 109.88">
  <!-- Generator: Adobe Illustrator 30.2.1, SVG Export Plug-In . SVG Version: 2.1.1 Build 1)  -->
  <path d="M65.8,42.91c-9.34.97-18.81.75-28.09-.66-6.08-.92-13.37-3.74-13.9-9.86-.36-4.18,2.82-7.84,6.27-10.23,10.48-7.26,25.46-7.25,35.93.01s15.72,21.3,12.59,33.65c-.41,1.62-1.01,3.3-2.28,4.38-1.19,1.01-2.8,1.36-4.34,1.63-8.12,1.39-16.48,1.36-24.58-.1-2.22-.4-4.5-.94-6.26-2.35-4.87-3.9-3.09-11.84.5-16.94,5.88-8.36,15.49-13.98,25.65-14.99,2.27-.23,4.7-.2,6.63,1.02,2.71,1.71,3.61,5.18,4.11,8.34,1.28,7.97,1.47,16.11.59,24.14-.84,7.6-3.07,15.75-9.25,20.25s-17.05,2.5-18.68-4.97c-.91-4.16,1.25-8.42,4.07-11.62,4.82-5.45,11.79-8.93,19.04-9.51,2.17-.17,4.48-.06,6.31,1.12,3.12,2.01,3.75,6.31,3.43,10.01-1.2,13.74-11.22,25.45-23.12,32.43-8.43,4.94-18.33,8.03-27.99,6.5-9.65-1.52-18.79-8.38-21.08-17.87s4.01-20.77,13.68-22.14c3.81-.54,8.18.69,10.08,4.04,2.03,3.58.53,8.25-2.11,11.42-5.95,7.12-17.59,8.56-25.09,3.09S-1.8,66.7,3.16,58.86c3.19-5.04,8.6-8.23,14.03-10.69,7-3.16,14.99-5.44,22.3-3.08s12.91,11,9.6,17.94c-1.81,3.8-5.66,6.14-9.36,8.15-4.45,2.41-10.35,4.52-14.18,1.2-2.09-1.82-2.8-4.76-3.02-7.52-.91-11.58,4.92-22.97,13.4-30.9,8.49-7.93,19.37-12.82,30.41-16.44,12.78-4.19,28.85-6.06,37.85,3.93,3.33,3.69,5.12,8.53,6.16,13.39,3.33,15.51-.72,32.6-11.26,44.46-10.53,11.86-27.44,17.93-42.98,14.74-6.79-1.4-13.81-5.06-16.21-11.56-2.85-7.74,3.06-17.25,11.22-18.47s16.45,5.75,17.03,13.98-6.28,16.14-14.47,17.13c-2.38.29-4.89.04-6.96-1.15-2.13-1.22-3.61-3.32-4.75-5.5-4.96-9.48-4.19-21.69,1.91-30.47s17.28-13.76,27.89-12.41c2.36.3,4.76.93,6.57,2.47,3.71,3.16,3.53,9.38.51,13.21s-8.06,5.54-12.92,5.86c-17.65,1.15-33.69-15.42-33.97-33.1-.18-11.35,6.2-23.39,17.02-26.82s24.53,5.3,23.56,16.6c-.73,8.54-8.52,14.67-16.19,18.49-8.32,4.14-17.33,6.89-26.55,8.1-4.38.58-9.24.68-12.75-2-3.76-2.87-4.82-8.29-3.68-12.88s4.09-8.49,7.2-12.06C28.63,14.25,38.47,6.24,50.1,2.54,61.73-1.16,75.33,0,84.92,7.53c9.6,7.54,13.85,21.98,8.03,32.71-1.76,3.24-4.7,6.23-8.38,6.5s-7.5-3.54-6.11-6.96c.91-2.23,3.4-3.29,5.66-4.13,8.1-3.01,16.49-6.06,25.12-5.56s17.61,5.53,19.95,13.85c2.34,8.36-2.78,17.37-9.96,22.24s-16,6.53-24.55,8.02c-3.74.65-7.62,1.29-11.29.32s-7.07-4.04-7.15-7.84c-.08-3.56,2.72-6.6,5.85-8.29,8.69-4.69,20.49-1.09,26.19,6.97s5.58,19.41.93,28.13c-5.16,9.67-15.89,16.34-26.84,15.85-10.95-.48-21.36-8.56-23.79-19.25" fill="none" stroke="#231f20" stroke-miterlimit="10" stroke-width=".25"/>
</svg>